<?xml version="1.0" encoding="UTF-8" standalone="no"?>
<svg viewBox="0 0 56.7 56.7"
   width="56.7px"
   xml:space="preserve"
   id="svg1123"
   xmlns="http://www.w3.org/2000/svg"
   xmlns:svg="http://www.w3.org/2000/svg"><defs
   id="defs1127" />
<g
   id="g1121"
   transform="matrix(1.034134,0,0,1.034134,-0.88966732,-2.0095884)">
    <circle
   cx="28.1"
   cy="30"
   r="4.4000001"
   style="fill:#ffffff"
   id="circle1115" />
    <path
   d="m 33.6,19.2 h -11 c -1.6,0 -3,0.5 -3.9,1.4 -0.9,0.9 -1.4,2.3 -1.4,3.9 v 11 c 0,1.6 0.5,3 1.5,4 1,0.9 2.3,1.4 3.9,1.4 h 10.9 c 1.6,0 3,-0.5 3.9,-1.4 1,-0.9 1.5,-2.3 1.5,-3.9 v -11 c 0,-1.6 -0.5,-2.9 -1.4,-3.9 -1,-1 -2.3,-1.5 -4,-1.5 z m -5.5,17.6 c -3.8,0 -6.8,-3.1 -6.8,-6.8 0,-3.8 3.1,-6.8 6.8,-6.8 3.7,0 6.9,3 6.9,6.8 0,3.8 -3.1,6.8 -6.9,6.8 z m 7.1,-12.3 c -0.9,0 -1.6,-0.7 -1.6,-1.6 0,-0.9 0.7,-1.6 1.6,-1.6 0.9,0 1.6,0.7 1.6,1.6 0,0.9 -0.7,1.6 -1.6,1.6 z"
   style="fill:#ffffff"
   id="path1117" />
    <path
   d="m 28.3,5.2 c -13.6,0 -24.6,11 -24.6,24.6 0,13.6 11,24.6 24.6,24.6 13.6,0 24.6,-11 24.6,-24.6 C 53,16.2 41.9,5.2 28.3,5.2 Z m 13.1,30.4 c 0,2.3 -0.8,4.3 -2.2,5.7 -1.4,1.4 -3.4,2.1 -5.6,2.1 H 22.7 c -2.2,0 -4.2,-0.7 -5.6,-2.1 -1.5,-1.4 -2.2,-3.4 -2.2,-5.7 v -11 c 0,-4.6 3.1,-7.8 7.8,-7.8 h 11 c 2.3,0 4.2,0.8 5.6,2.2 1.4,1.4 2.1,3.3 2.1,5.6 z"
   style="fill:#ffffff"
   id="path1119" />
</g>
</svg>
