<?xml version="1.0" encoding="UTF-8" standalone="no"?>
<svg
   viewBox="0 0 512 512"
   version="1.1"
   id="svg1304"
   xmlns:inkscape="http://www.inkscape.org/namespaces/inkscape"
   xmlns:sodipodi="http://sodipodi.sourceforge.net/DTD/sodipodi-0.dtd"
   xmlns="http://www.w3.org/2000/svg"
   xmlns:svg="http://www.w3.org/2000/svg">
  <defs
     id="defs1308" />
  <path
     d="m 291.22119,463.8624 c -4.63035,17.11506 -22.12173,21.10077 -39.09995,21.10077 -16.97731,0 -34.4696,-3.98571 -39.09903,-21.10077 -6.88294,-25.59516 -18.52136,-89.73026 -18.52136,-119.57402 0,-31.65161 28.03772,-39.38895 57.62039,-39.38895 29.58268,0 57.6204,7.73734 57.6204,39.38895 0,29.6646 -11.588,93.79429 -18.52045,119.57402 z M 191.68015,283.79056 c -16.82965,-16.48303 -26.97174,-39.76978 -25.91477,-65.36223 1.84926,-44.76746 38.16901,-80.98908 82.94095,-82.72219 49.20693,-1.90507 89.84551,37.573 89.84551,86.36397 0,24.15285 -9.96113,46.02069 -25.9886,61.71865 -2.40835,2.35884 -2.16167,6.28962 0.5654,8.27122 8.38377,6.09066 14.81925,13.8136 19.11737,22.83479 1.56745,3.28976 5.84937,4.19548 8.50711,1.7025 25.95259,-24.34732 41.91254,-59.22567 40.9744,-97.74309 C 380.05743,150.24449 324.47175,94.422928 255.86928,92.47734 182.67877,90.401204 122.47535,149.33787 122.47535,222.07011 c 0,37.23809 15.7844,70.85509 41.00953,94.52356 2.65863,2.49478 6.94235,1.59357 8.51071,-1.6989 4.29812,-9.0221 10.73449,-16.74413 19.11827,-22.83479 2.72706,-1.98069 2.97464,-5.91149 0.56629,-8.26942 z M 252.12124,24 C 140.66539,24 50.449861,114.19843 50.449861,225.67138 c 0,81.02149 47.358564,149.13509 113.205169,181.33139 3.90108,1.90688 8.34325,-1.39009 7.68423,-5.68101 -2.14457,-13.96574 -3.9092,-27.86126 -4.86713,-39.91923 -0.13145,-1.65298 -1.03447,-3.13851 -2.41105,-4.06224 C 121.38597,328.70476 93.328439,279.89848 93.667859,224.68104 94.200848,138.03707 165.05413,67.442178 251.6999,67.216198 c 87.56589,-0.228682 158.87743,70.941512 158.87743,158.455182 0,55.75855 -28.95244,104.87813 -72.61069,133.12743 -0.89942,12.63777 -2.76309,27.53895 -5.0634,42.52205 -0.65903,4.29182 3.78404,7.58879 7.68422,5.68101 C 406.28011,374.87851 453.79263,306.86843 453.79263,225.67138 453.79263,114.21643 363.59421,24 252.12124,24 Z m 0,144.05099 c -31.82266,0 -57.62039,25.79773 -57.62039,57.62039 0,31.82267 25.79773,57.6204 57.62039,57.6204 31.82267,0 57.6204,-25.79773 57.6204,-57.6204 0,-31.82266 -25.79773,-57.62039 -57.6204,-57.62039 z"
     fill="#ffffff"
     id="path1302"
     style="stroke-width:0.900318" />
</svg>
