<?xml version="1.0" encoding="UTF-8" standalone="no"?>
<svg
   viewBox="0 0 52 52"
   version="1.1"
   id="svg1046"
   xmlns:inkscape="http://www.inkscape.org/namespaces/inkscape"
   xmlns:sodipodi="http://sodipodi.sourceforge.net/DTD/sodipodi-0.dtd"
   xmlns="http://www.w3.org/2000/svg"
   xmlns:svg="http://www.w3.org/2000/svg">
  <defs
     id="defs1050" />
  <g
     transform="matrix(0.99999,0,0,0.99999,-26.549686,-12.036382)"
     enable-background="new"
     id="g1044">
    <circle
       r="24"
       cy="38.279999"
       cx="52.369999"
       fill="transparent"
       id="circle1040" />
    <path
       d="m 52.38,14.285 c -13.255,0 -24,10.745 -24,24 0,13.255 10.745,24 24,24 13.255,0 24,-10.746 24,-24 0,-13.255 -10.745,-24 -24,-24 m -3.522,12.526 c 7.05,0 14.462,1.45 19.878,4.631 0.73,0.413 1.237,1.037 1.237,2.18 0,1.308 -1.052,2.249 -2.264,2.249 -0.489,0 -0.779,-0.119 -1.237,-0.37 -4.344,-2.605 -11.09,-4.04 -17.605,-4.04 -3.254,0 -6.56,0.331 -9.587,1.153 -0.349,0.088 -0.789,0.262 -1.231,0.262 -1.28,0 -2.263,-1.013 -2.263,-2.293 0,-1.304 0.808,-2.036 1.68,-2.294 3.421,-1.01 7.24,-1.478 11.391,-1.478 m -0.489,8.247 c 6.282,0 12.359,1.565 17.14,4.424 0.801,0.459 1.096,1.043 1.096,1.897 0,1.039 -0.827,1.879 -1.871,1.879 -0.521,0 -0.848,-0.21 -1.202,-0.416 -3.904,-2.317 -9.315,-3.856 -15.24,-3.856 -3.039,0 -5.662,0.426 -7.833,1 -0.468,0.129 -0.73,0.267 -1.168,0.267 -1.032,0 -1.875,-0.841 -1.875,-1.882 0,-1.021 0.495,-1.723 1.493,-2 2.698,-0.741 5.453,-1.313 9.463,-1.313 m 0.329,7.837 c 5.252,0 9.932,1.205 13.96,3.619 0.599,0.35 0.951,0.708 0.951,1.595 0,0.865 -0.704,1.501 -1.493,1.501 -0.388,0 -0.653,-0.135 -1.016,-0.356 -3.478,-2.104 -7.815,-3.211 -12.418,-3.211 -2.568,0 -5.153,0.329 -7.57,0.833 -0.393,0.085 -0.888,0.237 -1.183,0.237 -0.911,0 -1.519,-0.724 -1.519,-1.508 0,-1.01 0.582,-1.511 1.306,-1.649 2.964,-0.676 5.917,-1.061 8.983,-1.061"
       fill="#ffffff"
       id="path1042" />
  </g>
</svg>
