<?xml version="1.0" encoding="UTF-8" standalone="no"?>
<svg
   style="fill-rule:evenodd;clip-rule:evenodd;stroke-linejoin:round;stroke-miterlimit:2;"
   version="1.1"
   viewBox="0 0 512 512"
   xml:space="preserve"
   id="svg912"
   xmlns:inkscape="http://www.inkscape.org/namespaces/inkscape"
   xmlns:sodipodi="http://sodipodi.sourceforge.net/DTD/sodipodi-0.dtd"
   xmlns="http://www.w3.org/2000/svg"
   xmlns:svg="http://www.w3.org/2000/svg"><defs
   id="defs916" />
<path
   d="m 253.61828,16.672032 c 132.74572,0 240.51883,107.773098 240.51883,240.518828 0,132.74572 -107.77311,240.51883 -240.51883,240.51883 -132.74573,0 -240.518827,-107.77311 -240.518827,-240.51883 0,-132.74573 107.773097,-240.518828 240.518827,-240.518828 z M 397.66181,184.82663 c -3.45746,-12.93634 -13.64381,-23.12175 -26.57921,-26.57921 -23.44871,-6.28355 -117.46432,-6.28355 -117.46432,-6.28355 0,0 -94.01562,0 -117.46432,6.28355 -12.93259,3.45746 -23.12175,13.64287 -26.57921,26.57921 -6.28074,23.44589 -6.28074,72.36611 -6.28074,72.36611 0,0 0,48.91833 6.28074,72.36234 3.45746,12.93634 13.64662,23.12551 26.57921,26.58203 23.4487,6.28073 117.46432,6.28073 117.46432,6.28073 0,0 94.01561,0 117.46432,-6.28073 12.9354,-3.45652 23.12175,-13.64569 26.57921,-26.58203 6.28074,-23.44401 6.28074,-72.36234 6.28074,-72.36234 0,0 0,-48.92022 -6.28074,-72.36611 z M 223.55248,302.29096 v -90.19644 l 78.10943,45.09822 z"
   style="fill:#ffffff;stroke-width:0.939527"
   id="path910" />
</svg>
